<svg width="881" height="339" viewBox="0 0 881 339" fill="none" xmlns="http://www.w3.org/2000/svg">
<path d="M226 127.125H141.249V0L0 211.875H84.7463V339L226 127.125ZM52.7699 183.624L112.989 93.3013V155.372H173.205L112.989 245.695V183.624H52.7699Z" fill="#FFC00E"/>
<path d="M837.349 225.14C833.929 225.14 830.383 225.013 826.709 224.76C823.036 224.507 819.426 224.19 815.879 223.81C812.333 223.43 808.976 222.923 805.809 222.29C802.769 221.53 800.109 220.707 797.829 219.82V200.63H844.189C846.343 200.63 848.053 200.44 849.319 200.06C850.586 199.68 851.473 199.11 851.979 198.35C852.486 197.463 852.739 196.26 852.739 194.74V191.89C852.739 190.117 852.106 188.723 850.839 187.71C849.699 186.57 847.293 186 843.619 186H826.899C821.199 186 815.943 185.113 811.129 183.34C806.443 181.567 802.706 178.59 799.919 174.41C797.133 170.103 795.739 164.467 795.739 157.5V151.42C795.739 144.833 797.006 139.323 799.539 134.89C802.073 130.33 806.443 126.847 812.649 124.44C818.983 122.033 827.659 120.83 838.679 120.83C843.113 120.83 847.736 121.083 852.549 121.59C857.363 122.097 861.859 122.793 866.039 123.68C870.219 124.44 873.449 125.263 875.729 126.15V145.34H831.839C829.053 145.34 826.963 145.783 825.569 146.67C824.303 147.557 823.669 149.14 823.669 151.42V154.08C823.669 155.6 823.986 156.803 824.619 157.69C825.253 158.577 826.329 159.21 827.849 159.59C829.369 159.843 831.269 159.97 833.549 159.97H850.459C861.353 159.97 869.079 162.44 873.639 167.38C878.199 172.193 880.479 178.907 880.479 187.52V197.21C880.479 204.05 878.833 209.56 875.539 213.74C872.373 217.793 867.559 220.707 861.099 222.48C854.766 224.253 846.849 225.14 837.349 225.14Z" fill="#313A3B"/>
<path d="M742.134 224.95C730.734 224.95 721.55 223.493 714.584 220.58C707.617 217.54 702.55 212.283 699.384 204.81C696.344 197.21 694.824 186.633 694.824 173.08C694.824 159.147 696.217 148.38 699.004 140.78C701.917 133.053 706.73 127.67 713.444 124.63C720.157 121.59 729.277 120.07 740.804 120.07C751.317 120.07 759.677 121.083 765.884 123.11C772.09 125.137 776.524 128.747 779.184 133.94C781.97 139.133 783.364 146.48 783.364 155.98C783.364 163.073 781.97 168.71 779.184 172.89C776.397 177.07 772.407 180.047 767.214 181.82C762.147 183.467 756.13 184.29 749.164 184.29H727.314C727.694 188.343 728.454 191.573 729.594 193.98C730.86 196.387 733.14 198.097 736.434 199.11C739.727 200.123 744.604 200.63 751.064 200.63H779.754V219.82C775.067 220.96 769.684 222.1 763.604 223.24C757.65 224.38 750.494 224.95 742.134 224.95ZM726.934 164.91H745.554C748.72 164.91 751 164.277 752.394 163.01C753.787 161.743 754.484 159.463 754.484 156.17C754.484 153.13 754.04 150.723 753.154 148.95C752.267 147.05 750.81 145.72 748.784 144.96C746.757 144.073 744.097 143.63 740.804 143.63C737.51 143.63 734.85 144.263 732.824 145.53C730.797 146.67 729.277 148.823 728.264 151.99C727.377 155.03 726.934 159.337 726.934 164.91Z" fill="#313A3B"/>
<path d="M640.268 224.95C628.868 224.95 619.685 223.493 612.719 220.58C605.752 217.54 600.685 212.283 597.518 204.81C594.478 197.21 592.958 186.633 592.958 173.08C592.958 159.147 594.352 148.38 597.138 140.78C600.052 133.053 604.865 127.67 611.578 124.63C618.292 121.59 627.412 120.07 638.939 120.07C649.452 120.07 657.812 121.083 664.018 123.11C670.225 125.137 674.659 128.747 677.319 133.94C680.105 139.133 681.499 146.48 681.499 155.98C681.499 163.073 680.105 168.71 677.319 172.89C674.532 177.07 670.542 180.047 665.349 181.82C660.282 183.467 654.265 184.29 647.298 184.29H625.449C625.829 188.343 626.589 191.573 627.729 193.98C628.995 196.387 631.275 198.097 634.569 199.11C637.862 200.123 642.739 200.63 649.199 200.63H677.889V219.82C673.202 220.96 667.818 222.1 661.738 223.24C655.785 224.38 648.628 224.95 640.268 224.95ZM625.069 164.91H643.689C646.855 164.91 649.135 164.277 650.529 163.01C651.922 161.743 652.618 159.463 652.618 156.17C652.618 153.13 652.175 150.723 651.289 148.95C650.402 147.05 648.945 145.72 646.919 144.96C644.892 144.073 642.232 143.63 638.939 143.63C635.645 143.63 632.985 144.263 630.958 145.53C628.932 146.67 627.412 148.823 626.398 151.99C625.512 155.03 625.069 159.337 625.069 164.91Z" fill="#313A3B"/>
<path d="M568.769 224.57C561.169 224.57 554.836 223.367 549.769 220.96C544.703 218.427 540.966 214.69 538.559 209.75C536.153 204.81 534.949 198.54 534.949 190.94V79.03H567.819V185.81C567.819 188.977 568.136 191.51 568.769 193.41C569.403 195.31 570.416 196.767 571.809 197.78C573.203 198.667 574.976 199.3 577.129 199.68L583.969 200.63V224.57H568.769Z" fill="#313A3B"/>
<path d="M458.36 269.03L468.81 224C462.223 224 456.65 222.797 452.09 220.39C447.53 217.983 443.793 214.69 440.88 210.51C438.093 206.203 436.003 201.2 434.61 195.5L417.32 121.78H451.33L465.01 188.85C465.516 190.75 466.15 192.27 466.91 193.41C467.67 194.55 468.493 195.437 469.38 196.07C470.393 196.577 471.343 196.957 472.23 197.21C473.116 197.337 473.876 197.4 474.51 197.4L490.09 121.78H523.53L495.41 250.22L485.91 269.03H458.36Z" fill="#313A3B"/>
<path d="M306.21 224V83.02H365.49C371.443 83.02 376.89 83.78 381.83 85.3C386.897 86.6933 391.267 89.1633 394.94 92.71C398.74 96.13 401.653 100.817 403.68 106.77C405.833 112.723 406.91 120.26 406.91 129.38C406.91 135.587 406.34 140.907 405.2 145.34C404.06 149.647 402.54 153.32 400.64 156.36C398.74 159.273 396.523 161.68 393.99 163.58C391.583 165.48 389.05 167.127 386.39 168.52L411.66 224H378.22L357.13 173.84C355.863 173.84 354.407 173.84 352.76 173.84C351.24 173.713 349.72 173.65 348.2 173.65C346.68 173.65 345.097 173.65 343.45 173.65C341.93 173.65 340.473 173.65 339.08 173.65V224H306.21ZM339.08 147.62H359.6C361.88 147.62 363.907 147.367 365.68 146.86C367.453 146.227 368.973 145.213 370.24 143.82C371.507 142.3 372.457 140.4 373.09 138.12C373.723 135.84 374.04 132.99 374.04 129.57C374.04 126.15 373.723 123.363 373.09 121.21C372.457 118.93 371.507 117.22 370.24 116.08C368.973 114.813 367.453 113.927 365.68 113.42C363.907 112.787 361.88 112.47 359.6 112.47H339.08V147.62Z" fill="#313A3B"/>
</svg>
