<?xml version="1.0" encoding="iso-8859-1"?>
<!-- Generator: Adobe Illustrator 26.5.1, SVG Export Plug-In . SVG Version: 6.00 Build 0)  -->
<svg xmlns="http://www.w3.org/2000/svg" xmlns:xlink="http://www.w3.org/1999/xlink" version="1.1" id="Capa_1" x="0px" y="0px" viewBox="0 0 512 512" style="enable-background:new 0 0 512 512;" xml:space="preserve">
<g>
	<ellipse style="fill:#D4AFB7;" cx="276.442" cy="381.29" rx="104.028" ry="61.692"/>
	<g>
		<path style="fill:#89D770;" d="M473.375,165.876c3.258,30.6-95.165,66.136-219.799,79.403    c-124.636,13.268-228.308-0.754-231.566-31.354c-3.255-30.576,95.139-66.133,219.775-79.401    C366.42,121.256,470.12,135.299,473.375,165.876z"/>
		<path style="fill:#6DB850;" d="M163.287,255.803c-26.261,0-50.563-1.431-71.745-4.299c-59.6-8.068-73.687-24.573-75.008-36.997    c-0.323-3.026,1.87-5.741,4.896-6.063c3.019-0.324,5.741,1.87,6.063,4.897c1.463,13.743,34.809,23.083,65.528,27.242    c43.314,5.864,100.132,5.583,159.985-0.788c59.854-6.371,115.457-18.059,156.565-32.91c29.155-10.533,59.788-26.683,58.325-40.426    c-0.323-3.026,1.87-5.741,4.896-6.064c3.025-0.325,5.741,1.87,6.063,4.896c1.323,12.425-8.974,31.524-65.539,51.959    c-41.916,15.143-98.434,27.041-159.143,33.504C222.579,254.118,191.781,255.803,163.287,255.803z"/>
		
			<ellipse transform="matrix(0.9944 -0.1059 0.1059 0.9944 -12.7433 26.329)" style="fill:#89D770;" cx="241.659" cy="133.212" rx="124.093" ry="108.039"/>
		<path style="fill:#D4AFB7;" d="M435.947,184.623c-9.733,1.036-18.717,4.216-26.542,9.012    c-14.096-58.153-67.077-100.413-128.34-100.386c-28.192,0.012-56.08,2.887-83.663,8.623    c-61.15,12.718-104.807,65.201-106.844,125.78c-8.705-3.084-18.218-4.321-28.015-3.278c-35.028,3.729-60.401,35.147-56.672,70.175    s35.147,60.401,70.175,56.672c17.844-1.9,33.17-10.994,43.432-24.081c15.091,18.263,36.978,30.363,61.289,32.74    c56.671,5.542,112.137-0.241,166.397-17.35c23.973-7.559,43.294-24.2,54.525-45.655c12.814,10.76,29.808,16.507,47.76,14.596    c35.028-3.729,60.401-35.148,56.672-70.176C502.394,206.267,470.975,180.895,435.947,184.623z"/>
		<path style="fill:#B78E98;" d="M221.857,367.402c-13.838,0-27.714-0.678-41.625-2.039c-23.331-2.281-44.654-12.81-60.704-29.845    c-11.314,11.965-26.322,19.418-42.896,21.182c-2.479,0.264-4.948,0.393-7.387,0.393c-34.947,0.003-65.07-26.447-68.851-61.962    c-4.045-37.993,23.574-72.193,61.568-76.238c7.974-0.847,15.854-0.341,23.515,1.506c2.436-28.16,13.703-55.319,32.126-77.14    c20.089-23.794,48.031-40.408,78.679-46.783c27.82-5.786,56.345-8.726,84.781-8.739c0.02,0,0.039,0,0.058,0    c30.722,0,60.981,10.495,85.209,29.556c22.207,17.471,38.558,41.479,46.569,68.178c7.044-3.365,14.573-5.487,22.466-6.328l0,0    c18.406-1.954,36.47,3.366,50.87,14.995c14.4,11.629,23.409,28.169,25.368,46.574c1.96,18.405-3.366,36.472-14.994,50.871    c-11.629,14.399-28.169,23.409-46.574,25.368c-16.697,1.78-33.03-2.415-46.659-11.861c-12.419,20.406-31.574,35.451-54.551,42.696    C307.424,360.839,264.869,367.401,221.857,367.402z M119.48,321.629c1.643,0,3.201,0.733,4.248,2.001    c14.57,17.633,35.018,28.56,57.576,30.765c55.664,5.444,110.91-0.317,164.204-17.12c22.253-7.017,40.472-22.272,51.299-42.955    c0.774-1.478,2.177-2.527,3.815-2.85c1.636-0.326,3.333,0.113,4.612,1.186c12.254,10.291,27.747,15.022,43.633,13.337    c31.95-3.402,55.177-32.162,51.776-64.113c-1.648-15.477-9.224-29.386-21.334-39.165c-12.111-9.779-27.308-14.261-42.779-12.61    c-8.686,0.925-16.844,3.694-24.247,8.23c-1.503,0.92-3.353,1.068-4.982,0.395c-1.629-0.672-2.838-2.083-3.253-3.795    c-6.556-27.045-22.372-51.542-44.534-68.977c-22.293-17.538-50.135-27.197-78.395-27.197c-0.018,0-0.033,0-0.053,0    c-27.686,0.013-55.457,2.875-82.542,8.508c-28.247,5.875-53.995,21.182-72.502,43.102c-18.37,21.759-29.01,49.271-29.957,77.467    c-0.06,1.756-0.952,3.379-2.404,4.368c-1.451,0.991-3.288,1.229-4.944,0.641c-8.234-2.917-16.841-3.925-25.591-2.992    c-31.95,3.401-55.177,32.162-51.776,64.112c3.402,31.95,32.153,55.184,64.113,51.776c15.778-1.68,29.87-9.493,39.678-22.002    c1.029-1.313,2.598-2.089,4.266-2.111C119.433,321.629,119.456,321.629,119.48,321.629z"/>
		<path style="fill:#FAEAC0;" d="M319.792,308.37c-38.845,11.656-78.49,15.796-118.936,12.42    c-24.82-2.072-46.028-17.357-54.43-39.09c-4.396-11.37-7.317-22.896-8.762-34.58c-5.659-45.748,27.82-88.05,76.46-97.809    c19.731-3.959,39.664-6.018,59.799-6.178c47.88-0.38,88.428,32.924,93.138,77.168c1.276,11.989,1.005,24.143-0.815,36.462    C362.695,280.8,344.681,300.901,319.792,308.37z"/>
		
			<ellipse transform="matrix(0.8797 -0.4755 0.4755 0.8797 -129.3574 65.851)" style="fill:#B78E98;" cx="65.488" cy="288.624" rx="23.194" ry="23.194"/>
		<path style="fill:#89D770;" d="M473.375,165.876c-3.255-30.576-106.955-44.618-231.59-31.35    c-124.636,13.268-223.03,48.824-219.775,79.4C15.69,154.56,111.598,95.648,236.234,82.38    C360.869,69.112,467.055,106.51,473.375,165.876z"/>
		<path style="fill:#6DB850;" d="M478.743,164.454c-3.702-30.584-31.255-56.404-77.733-72.77    c-13.318-4.69-27.771-8.45-43.072-11.271C334.431,38.677,283.29,14.577,229.631,20.29c-53.637,5.71-98.556,40.033-112.752,85.781    c-14.368,5.98-27.708,12.7-39.744,20.09c-42.376,26.02-63.898,57.396-60.603,88.347l10.959-1.166    c-1.463-13.743,29.17-29.894,58.326-40.426c41.108-14.851,96.71-26.539,156.564-32.91c59.856-6.372,116.672-6.653,159.985-0.788    c30.719,4.159,64.065,13.5,65.528,27.242l10.959-1.166C478.824,165.015,478.786,164.735,478.743,164.454z M230.798,31.25    c45.847-4.884,89.58,13.682,112.674,46.812c-33.346-4.708-70.126-5.176-107.807-1.165c-37.679,4.011-73.532,12.21-105.137,23.832    C146.128,63.481,184.964,36.128,230.798,31.25z M403.845,128.295c-44.163-5.979-101.919-5.712-162.63,0.75    c-86.268,9.183-175.348,31.452-209.871,59.249c7.494-18.346,25.071-36.477,51.558-52.741    c39.779-24.425,94.445-41.365,153.928-47.696c59.481-6.333,116.489-1.281,160.519,14.223    c29.307,10.32,50.302,24.337,61.492,40.686C447.451,137.02,430.048,131.842,403.845,128.295z"/>
		<path style="fill:#605C5D;" d="M242.713,253.503c-18.986,0-32.333-4.566-33.323-4.915c-2.871-1.012-4.378-4.159-3.366-7.029    c1.012-2.867,4.156-4.374,7.021-3.368c0.477,0.165,40.134,13.54,78.837-8.467c2.645-1.504,6.009-0.58,7.515,2.067    c1.504,2.645,0.579,6.01-2.066,7.514C277.807,250.404,258.348,253.503,242.713,253.503z"/>
		<g>
			<path style="fill:#605C5D;" d="M161.382,236.572c-1.216,0-2.44-0.4-3.46-1.224c-2.368-1.912-2.737-5.382-0.824-7.75     c11.251-13.934,31.743-16.114,45.676-4.862c2.367,1.913,2.737,5.382,0.824,7.749c-1.911,2.369-5.382,2.738-7.75,0.825     c-9.202-7.433-22.74-5.994-30.177,3.213C164.584,235.871,162.99,236.572,161.382,236.572z"/>
			<path style="fill:#605C5D;" d="M302.801,221.517c-1.216,0.001-2.439-0.4-3.459-1.224c-2.368-1.912-2.738-5.382-0.826-7.749     c11.251-13.932,31.742-16.116,45.675-4.862c2.368,1.912,2.738,5.382,0.826,7.749c-1.913,2.369-5.382,2.738-7.75,0.825     c-9.206-7.434-22.743-5.992-30.176,3.212C306.003,220.817,304.409,221.517,302.801,221.517z"/>
		</g>
	</g>
	<path style="fill:#6DB850;" d="M269.249,380.944c-3.043,0-5.511-2.468-5.511-5.511c0-32.744-32.883-50.798-33.215-50.976   c-2.678-1.439-3.689-4.777-2.254-7.457c1.433-2.68,4.762-3.699,7.446-2.265c1.594,0.849,39.045,21.26,39.045,60.698   C274.759,378.477,272.292,380.944,269.249,380.944z"/>
	<path style="fill:#89D770;" d="M321.546,285.426c-13.521-2.153-27.788,2.721-37.051,14.107   c-9.262,11.385-11.131,26.345-6.273,39.145c13.521,2.153,27.788-2.721,37.05-14.106   C324.535,313.186,326.405,298.226,321.546,285.426z"/>
	<path style="fill:#6DB850;" d="M326.698,283.47c-0.701-1.845-2.336-3.176-4.286-3.486c-15.9-2.531-32.067,3.626-42.192,16.071   c-9.419,11.577-12.436,27.168-8.211,41.407c-4.825,10.486-8.272,23.147-8.272,37.973c0,3.043,2.468,5.511,5.511,5.511   c3.043,0,5.511-2.468,5.511-5.511c0-11.816,2.569-22.132,6.284-30.884c1.136,0.086,2.272,0.131,3.404,0.131   c13.484,0,26.482-6.038,35.101-16.632C329.672,315.604,332.412,298.523,326.698,283.47z M310.998,321.094   c-6.034,7.418-14.92,11.872-24.305,12.487c9.589-15.684,21.506-23.989,21.769-24.169c2.518-1.702,3.182-5.123,1.483-7.645   c-1.702-2.524-5.128-3.191-7.65-1.491c-0.819,0.552-11.222,7.729-21.016,21.32c0.581-6.715,3.127-13.223,7.491-18.587   c6.959-8.554,17.708-13.168,28.641-12.502C320.297,301.081,317.957,312.54,310.998,321.094z"/>
	<path style="fill:#DD9B9B;" d="M328.368,410.461c0,14.107-11.456,25.563-25.563,25.563c-8.068,0-15.26-3.734-19.939-9.589   c-3.665,2.052-7.883,3.204-12.378,3.204c-2.513,0-4.933-0.369-7.215-1.038c-4.679,5.924-11.94,9.704-20.054,9.704   c-14.107,0-25.563-11.433-25.563-25.54c0-14.13,11.457-25.563,25.563-25.563c2.513,0,4.933,0.369,7.238,1.037   c4.68-5.924,11.918-9.704,20.031-9.704c8.068,0,15.259,3.734,19.938,9.566c3.665-2.052,7.884-3.204,12.378-3.204   C316.912,384.898,328.368,396.354,328.368,410.461z"/>
	<path style="fill:#C17C7C;" d="M243.22,443.817c-17.134,0-31.074-13.93-31.074-31.051c0-17.134,13.94-31.074,31.074-31.074   c1.766,0,3.534,0.152,5.287,0.453c5.796-5.834,13.63-9.119,21.981-9.119c7.992,0,15.529,3.017,21.251,8.396   c3.507-1.339,7.265-2.034,11.066-2.034c17.134,0,31.073,13.939,31.073,31.073s-13.939,31.073-31.073,31.073   c-8.001,0-15.54-3.023-21.257-8.416c-5.134,1.958-10.845,2.525-16.328,1.581C259.423,440.533,251.583,443.817,243.22,443.817z    M243.22,392.714c-11.057,0-20.053,8.996-20.053,20.053c0,11.044,8.996,20.029,20.053,20.029c6.176,0,11.91-2.774,15.729-7.61   c1.393-1.763,3.719-2.504,5.874-1.873c5.142,1.507,10.791,0.867,15.352-1.686c2.35-1.318,5.312-0.74,6.996,1.368   c3.819,4.778,9.518,7.517,15.634,7.517c11.057,0,20.052-8.995,20.052-20.052c0-11.057-8.995-20.052-20.052-20.052   c-3.413,0-6.762,0.865-9.686,2.502c-2.352,1.313-5.305,0.738-6.989-1.36c-3.828-4.769-9.528-7.504-15.642-7.504   c-6.161,0-11.886,2.773-15.707,7.609c-1.389,1.758-3.706,2.501-5.857,1.878C247.046,392.99,245.127,392.714,243.22,392.714z"/>
	<path style="fill:#D4AFB7;" d="M185.042,360.602c-37.282,26.458-48.814,61.065-38.484,80.576   c21.647,40.89,149.126,44.497,153.937,6.013c4.811-38.484-81.779-36.079-107.034-26.458L185.042,360.602z"/>
	<path style="fill:#D4AFB7;" d="M358.221,341.36c41.785,18.545,59.947,50.18,53.689,71.352   c-13.115,44.368-137.351,73.167-149.692,36.4c-12.342-36.768,73.007-51.57,99.668-47.144L358.221,341.36z"/>
	<path style="fill:#B78E98;" d="M236.194,479.57c-14.061,0.001-28.678-1.576-42.144-4.676   c-26.346-6.064-44.943-17.123-52.362-31.138c-6.018-11.365-5.578-26.839,1.202-42.457c7.204-16.587,20.676-32.214,38.963-45.192   c2.481-1.76,5.922-1.177,7.683,1.305c1.761,2.481,1.177,5.922-1.305,7.683c-27.054,19.2-48.217,51.943-36.802,73.504   c5.813,10.981,22.249,20.295,45.094,25.554c21.656,4.985,46.414,5.793,66.229,2.161c19.383-3.553,31.146-10.772,32.275-19.807   c0.759-6.072-1.298-10.794-6.474-14.857c-19.358-15.199-73.611-13.203-93.13-5.767c-2.847,1.082-6.028-0.343-7.112-3.188   c-1.083-2.844,0.344-6.028,3.188-7.112c21.766-8.292,80.593-10.869,103.859,7.397c8.172,6.415,11.839,15.023,10.606,24.894   c-1.792,14.337-16.433,24.736-41.226,29.28C255.918,478.772,246.197,479.57,236.194,479.57z"/>
	<path style="fill:#B78E98;" d="M279.426,424.349l-5.933-9.288c24.884-15.9,70.224-21.68,89.291-18.518l-1.8,10.873   C343.786,404.569,301.014,410.556,279.426,424.349z"/>
	<path style="fill:#B78E98;" d="M301.102,471.402c-5.813,0-11.267-0.426-16.201-1.299l1.924-10.853   c18.417,3.269,46.42-0.757,71.335-10.246c26.293-10.014,44.41-24.162,48.461-37.847c5.736-19.385-11.524-50.719-49.412-67.542   l4.474-10.072c43.928,19.505,62.719,56.37,55.506,80.741c-5.094,17.214-25.18,33.623-55.105,45.02   C341.521,467.133,319.507,471.402,301.102,471.402z"/>
	<g>
		<path style="fill:#FFFF9D;" d="M372.154,220.757c14.29-16.727,47.544-21.259,79.397,3.505    c31.144,23.183,60.889,75.661,51.761,136.427c-6.397,61.114-48.351,104.457-84.313,119.09    c-37.046,15.986-68.099,3.261-77.742-16.515c-20.36-42.233,25.484-63.561,32.21-119.119    C380.883,288.678,341.856,256.537,372.154,220.757z"/>
		<path style="fill:#FFE5A7;" d="M376.094,454.362c-2.017,0-3.959-1.111-4.927-3.035c-1.367-2.718-0.274-6.029,2.443-7.397h-0.001    c0.19-0.096,19.168-9.78,38.217-28.242c25.169-24.392,38.58-51.776,39.862-81.39c1.719-39.729-18.146-67.862-35.113-84.466    c-2.175-2.129-2.213-5.617-0.084-7.793c2.128-2.177,5.617-2.213,7.793-0.084c18.571,18.174,40.311,49.03,38.417,92.82    c-1.392,32.168-16.417,62.967-43.45,89.067c-20.24,19.541-39.859,29.517-40.684,29.931    C377.772,454.173,376.926,454.362,376.094,454.362z"/>
		<path style="fill:#605C5D;" d="M402.924,328.557c0.14,5.088-3.94,9.328-9.113,9.47c-5.174,0.143-9.481-3.866-9.621-8.954    c-0.14-5.088,3.94-9.328,9.114-9.47C398.476,319.46,402.784,323.469,402.924,328.557z"/>
		<path style="fill:#605C5D;" d="M467.706,326.772c0.14,5.088-3.94,9.328-9.114,9.47c-5.173,0.143-9.481-3.866-9.621-8.954    c-0.14-5.088,3.94-9.328,9.114-9.47C463.258,317.676,467.566,321.685,467.706,326.772z"/>
		<path style="fill:#FFCC6B;" d="M386.24,492.542c-7.073,0-13.066-1.01-17.82-2.288c-14.726-3.958-26.432-12.915-32.117-24.573    c-12.896-26.752-1.562-46.453,10.438-67.31c8.673-15.073,18.503-32.159,21.254-54.887c3.043-22.759-2.189-41.763-6.804-58.528    c-6.386-23.201-12.419-45.115,6.756-67.76c0.005-0.006,0.011-0.012,0.016-0.018c8.426-9.862,22.004-15.598,37.252-15.737    c0.189-0.001,0.381-0.002,0.572-0.002c11.709,0,29.551,3.257,49.1,18.439c32.536,24.25,63.251,78.85,53.891,141.508    c-6.647,63.008-50.072,108.163-87.652,123.478C407.747,490.628,395.973,492.542,386.24,492.542z M376.351,224.328    c-15.406,18.201-10.845,34.771-4.533,57.702c4.894,17.78,10.442,37.931,7.111,62.846c-3.013,24.888-13.436,43.006-22.633,58.991    c-11.863,20.618-20.434,35.516-10.075,57.005c8.77,17.983,37.58,28.093,70.596,13.848c0.035-0.016,0.071-0.03,0.106-0.045    c34.669-14.107,74.777-55.973,80.91-114.559c0.008-0.082,0.019-0.163,0.03-0.246c8.751-58.253-19.578-108.839-49.602-131.187    c-0.03-0.023-0.062-0.046-0.092-0.07C425.876,211.283,392.921,204.943,376.351,224.328z"/>
		<g>
			<path style="fill:#605C5D;" d="M426.628,348.225c-4.763,0-9.271-1.793-12.745-5.08c-3.602-3.408-5.659-8.015-5.796-12.971     c-0.084-3.042,2.315-5.576,5.357-5.66c0.052-0.001,0.103-0.002,0.155-0.002c2.974,0,5.424,2.368,5.506,5.359     c0.056,2.014,0.891,3.884,2.354,5.269c1.463,1.385,3.379,2.12,5.39,2.061c4.156-0.115,7.444-3.589,7.33-7.745     c-0.084-3.042,2.315-5.576,5.357-5.66c3.039-0.07,5.576,2.314,5.66,5.357c0.136,4.956-1.665,9.669-5.073,13.27     c-3.408,3.601-8.015,5.659-12.971,5.796C426.977,348.224,426.802,348.225,426.628,348.225z"/>
		</g>
		<path style="fill:#605C5D;" d="M382.444,250.407c-8.172-0.54-15.408-4.795-19.852-11.674l-18.491-28.617    c-2.844-4.401-3.804-9.648-2.702-14.771c1.101-5.123,4.132-9.511,8.534-12.354c6.894-4.455,15.925-4.122,22.471,0.824    l27.188,20.534c0,0,0.001,0,0.001,0c5.612,4.239,9.27,10.681,10.036,17.671c0.766,6.992-1.41,14.071-5.97,19.426    c-4.931,5.79-11.951,9.02-19.471,9.02C383.61,250.465,383.028,250.445,382.444,250.407z"/>
	</g>
	<g>
		<path style="fill:#89D770;" d="M383.071,358.866c13.521-2.153,27.788,2.721,37.051,14.107    c9.262,11.385,11.131,26.345,6.272,39.145c-13.521,2.153-27.788-2.721-37.05-14.106    C380.082,386.627,378.213,371.667,383.071,358.866z"/>
		<path style="fill:#6DB850;" d="M432.608,410.903c4.225-14.238,1.208-29.829-8.211-41.407    c-10.123-12.445-26.289-18.604-42.192-16.071c-1.95,0.31-3.585,1.641-4.286,3.486c-5.714,15.053-2.975,32.134,7.15,44.579    c8.618,10.595,21.615,16.632,35.101,16.632c1.131,0,2.267-0.045,3.403-0.131c3.715,8.752,6.285,19.068,6.285,30.884    c0,3.043,2.468,5.511,5.511,5.511c3.043,0,5.511-2.468,5.511-5.511C440.879,434.049,437.433,421.388,432.608,410.903z     M393.619,394.534c-6.959-8.555-9.299-20.014-6.413-30.586c10.928-0.674,21.681,3.948,28.641,12.502    c4.364,5.365,6.91,11.872,7.491,18.587c-9.794-13.592-20.197-20.768-21.016-21.32c-2.522-1.7-5.935-1.032-7.638,1.485    c-1.703,2.517-1.043,5.94,1.471,7.649c0.201,0.137,12.154,8.445,21.768,24.169C408.547,406.404,399.653,401.951,393.619,394.534z"/>
	</g>
	<path style="fill:#FFFF9D;" d="M503.311,360.69c-9.199,38.296-66.839,67.506-86.614,47.732   c-19.775-19.775,43.307-32.987,43.307-32.987L503.311,360.69z"/>
	<path style="fill:#FFCC6B;" d="M434.469,420.313c-8.926,0-16.372-2.7-21.668-7.996c-6.03-6.029-5.986-11.693-4.888-15.382   c2.308-7.751,11.602-14.444,28.41-20.46c11.401-4.08,22.102-6.341,22.551-6.434c2.978-0.627,5.899,1.284,6.522,4.262   c0.625,2.979-1.284,5.899-4.261,6.525c-24.331,5.109-41.088,13.971-42.659,19.254c-0.132,0.443-0.533,1.791,2.117,4.442   c5.1,5.097,14.688,6.143,26.308,2.866c20.839-5.876,45.633-25.432,51.052-47.988c0.71-2.961,3.683-4.783,6.646-4.071   c2.959,0.71,4.782,3.686,4.07,6.645c-6.602,27.485-35.211,49.378-58.778,56.022C444.4,419.547,439.225,420.313,434.469,420.313z"/>
</g>
<g>
</g>
<g>
</g>
<g>
</g>
<g>
</g>
<g>
</g>
<g>
</g>
<g>
</g>
<g>
</g>
<g>
</g>
<g>
</g>
<g>
</g>
<g>
</g>
<g>
</g>
<g>
</g>
<g>
</g>
</svg>
