<svg width="243" height="243" viewBox="0 0 243 243" fill="none" xmlns="http://www.w3.org/2000/svg">
<rect width="243" height="243" fill="#F5F5F5"/>
<g id="App 404 Error">
<rect width="1400" height="800" transform="translate(-695 -242)" fill="white"/>
<g id="keyboard (1) 2" clip-path="url(#clip0_0_1)">
<g id="Group">
<g id="Group_2">
<path id="Vector" d="M239.857 79.0191C237.221 62.4339 221.639 51.1263 205.054 53.7628C200.445 54.4951 196.246 56.2298 192.638 58.7054C184.498 31.3655 158.235 12.5477 129.069 14.066C115.647 14.7646 102.441 16.8187 89.4496 20.2278C60.6489 27.7855 41.1539 53.8454 41.6731 82.7367C37.4528 81.4823 32.8933 81.1273 28.2549 81.8644C11.6697 84.5009 0.362123 100.082 2.9981 116.668C5.63408 133.253 21.216 144.56 37.8012 141.924C46.2497 140.582 53.3228 135.874 57.8872 129.392C64.7723 136.9 74.1667 141.883 84.4781 143.181C84.3599 144.2 84.2963 145.232 84.2963 146.276C84.2963 164.994 103.709 180.169 127.657 180.169C143.34 180.169 157.078 173.66 164.692 163.91C176.687 168.586 189.539 167.528 189.539 167.528L207.583 154.557C187.016 152.446 174.605 144.281 166.666 131.124L166.611 131.382C166.57 131.318 166.532 131.252 166.491 131.188C166.549 131.166 166.608 131.146 166.666 131.124C177.894 126.936 186.683 118.538 191.503 108.048C197.868 112.856 206.1 115.174 214.6 113.823C231.185 111.186 242.493 95.6039 239.857 79.0191Z" fill="#D4AFB7"/>
<path id="Vector_2" d="M154.398 125.627C136.191 132.131 117.417 135.077 98.0785 134.463C86.2109 134.087 75.7381 127.331 71.2037 117.191C68.8316 111.885 67.1577 106.47 66.1823 100.942C62.3636 79.3005 77.2635 58.3385 100.181 52.4965C109.477 50.1268 118.917 48.6564 128.499 48.0855C151.286 46.7281 171.408 61.5872 174.738 82.5359C175.641 88.2128 175.81 94.0058 175.247 99.9152C174.147 111.447 166.064 121.46 154.398 125.627Z" fill="#FAEAC0"/>
<path id="Vector_3" d="M118.251 100.233C116.372 100.233 114.48 99.9764 112.625 99.4553C111.235 99.0647 110.425 97.6219 110.816 96.2318C111.206 94.8416 112.65 94.0324 114.039 94.4226C118.501 95.6765 123.244 94.8824 127.054 92.2446C128.241 91.4235 129.869 91.7192 130.691 92.9057C131.513 94.0922 131.217 95.7206 130.03 96.5426C126.52 98.9731 122.416 100.233 118.251 100.233Z" fill="#605C5D"/>
<path id="Vector_4" d="M218.379 91.5079C222.567 87.0634 222.359 80.0652 217.915 75.8771C213.47 71.689 206.472 71.897 202.284 76.3415C198.096 80.7861 198.304 87.7843 202.748 91.9724C207.193 96.1604 214.191 95.9525 218.379 91.5079Z" fill="#B78E98"/>
<path id="Vector_5" d="M37.8761 121.221C42.7573 117.551 43.7395 110.619 40.0699 105.738C36.4003 100.857 29.4685 99.8746 24.5872 103.544C19.706 107.214 18.7238 114.146 22.3934 119.027C26.0631 123.908 32.9949 124.89 37.8761 121.221Z" fill="#B78E98"/>
</g>
<path id="Vector_6" d="M242.599 78.6091C241.215 69.8981 236.359 62.2479 229.221 57.0675C222.083 51.8867 213.355 49.7965 204.644 51.1814C200.903 51.7761 197.368 52.9735 194.094 54.7519C189.626 42.2341 181.251 31.2027 170.247 23.4291C158.238 14.9464 143.566 10.6887 128.933 11.4561C115.396 12.1609 101.888 14.2615 88.7866 17.6991C74.3547 21.4865 61.4629 30.0817 52.4852 41.9014C44.2488 52.7452 39.5526 65.9555 39.0874 79.4249C35.3912 78.7315 31.6228 78.6817 27.8444 79.2835C19.1334 80.6679 11.4832 85.3618 6.30285 92.5004C1.12249 99.639 -0.968166 108.367 0.416744 117.078C1.80118 125.789 6.49507 133.439 13.6337 138.62C20.7723 143.8 29.5027 145.891 38.2113 144.506C46.0614 143.258 53.0239 139.339 58.115 133.361C66.1748 141.08 76.5863 145.572 87.7515 146.085C89.7425 146.176 91.7567 146.24 93.7387 146.274C93.7539 146.274 93.7691 146.274 93.7848 146.274C95.2072 146.274 96.3728 145.133 96.397 143.705C96.4217 142.262 95.2722 141.071 93.8289 141.047C91.8968 141.014 89.9324 140.952 87.9912 140.863C77.1934 140.367 67.1867 135.666 59.8136 127.626C59.2787 127.042 58.5123 126.734 57.7192 126.784C56.9299 126.835 56.2057 127.24 55.75 127.887C51.386 134.086 44.8663 138.155 37.3912 139.343C30.0594 140.509 22.7125 138.749 16.7044 134.388C10.6963 130.028 6.74518 123.589 5.58002 116.257C4.41485 108.926 6.17423 101.579 10.5345 95.5711C14.8947 89.5631 21.3337 85.6119 28.6655 84.4468C32.8088 83.788 36.9346 84.0552 40.9285 85.2432C41.7282 85.48 42.592 85.3229 43.255 84.8184C43.9185 84.3139 44.302 83.5237 44.2868 82.6907C44.0452 69.2403 48.4353 55.8777 56.6485 45.0637C64.9223 34.1709 76.807 26.2483 90.1136 22.7566C102.871 19.4092 116.024 17.3631 129.205 16.6768C142.675 15.9787 156.176 19.8904 167.231 27.6996C178.213 35.4571 186.347 46.7338 190.133 59.4519C190.372 60.2531 190.979 60.8914 191.767 61.1705C192.555 61.4491 193.428 61.3342 194.118 60.8615C197.532 58.5184 201.35 56.9987 205.464 56.3447C212.797 55.1795 220.143 56.9389 226.151 61.2991C232.159 65.6594 236.11 72.0984 237.275 79.4302C238.44 86.7619 236.681 94.1084 232.321 100.117C227.961 106.126 221.522 110.076 214.19 111.242C206.666 112.436 199.168 110.563 193.078 105.962C192.447 105.485 191.632 105.32 190.865 105.513C190.097 105.706 189.458 106.237 189.128 106.957C184.48 117.073 176.178 124.786 165.753 128.675C160.306 130.706 154.745 132.511 149.227 134.039C147.836 134.425 147.02 135.865 147.406 137.256C147.791 138.648 149.231 139.463 150.622 139.078C155.613 137.695 160.632 136.082 165.578 134.295C173.452 146.292 184.771 153.377 200.759 156.244L188.629 164.962C185.449 165.108 172.035 165.32 161.325 159.483C160.058 158.792 158.471 159.26 157.78 160.528C157.089 161.795 157.556 163.383 158.824 164.073C168.749 169.483 180.322 170.252 186.101 170.252C188.224 170.252 189.565 170.148 189.754 170.133C190.226 170.094 190.679 169.927 191.064 169.65L209.108 156.68C209.99 156.046 210.388 154.933 210.108 153.885C209.829 152.835 208.93 152.068 207.85 151.957C190.498 150.176 178.562 143.914 170.559 132.332C179.955 128.088 187.602 120.977 192.501 111.898C199.222 116.064 207.103 117.661 215.01 116.404C223.72 115.019 231.371 110.325 236.552 103.186C241.732 96.0481 243.984 87.3196 242.599 78.6091Z" fill="#B78E98"/>
<path id="Vector_7" d="M211.909 198.222C219.404 193.663 220.406 181.624 214.145 171.332C207.885 161.04 196.734 156.392 189.238 160.951C181.743 165.511 180.742 177.55 187.002 187.842C193.263 198.134 204.414 202.781 211.909 198.222Z" fill="#91A2B5"/>
<path id="Vector_8" d="M205.43 202.579C194.741 202.579 184.02 192.745 181.022 180.191C179.361 173.236 180.456 166.652 184.028 162.128C186.848 158.556 190.991 156.588 195.695 156.588C206.383 156.588 217.105 166.423 220.103 178.976C221.765 185.931 220.669 192.514 217.098 197.039C214.278 200.612 210.134 202.579 205.43 202.579ZM195.695 161.816C192.58 161.816 189.964 163.044 188.131 165.367C185.557 168.628 184.819 173.588 186.106 178.977C188.526 189.109 197.195 197.352 205.43 197.352C208.545 197.352 211.161 196.124 212.994 193.801C215.568 190.54 216.306 185.579 215.019 180.191C212.599 170.059 203.931 161.816 195.695 161.816Z" fill="#678490"/>
<g id="Group_3">
<path id="Vector_9" d="M204.279 153.847C196.814 152.702 190.36 154.393 189.215 161.858C188.069 169.323 193.193 176.304 200.658 177.449C208.123 178.595 215.104 173.472 216.25 166.006C217.395 158.541 211.745 154.993 204.279 153.847Z" fill="#D4AFB7"/>
<path id="Vector_10" d="M202.767 180.225C201.936 180.225 201.099 180.161 200.262 180.033C195.961 179.372 192.175 177.078 189.601 173.57C187.026 170.062 185.972 165.762 186.632 161.462C187.302 157.095 189.609 153.906 193.303 152.241C196.292 150.893 200.119 150.565 204.676 151.264C209.233 151.964 212.785 153.424 215.233 155.606C218.258 158.303 219.503 162.036 218.833 166.403C218.173 170.704 215.878 174.49 212.371 177.064C209.546 179.137 206.206 180.224 202.767 180.225ZM200.29 156.137C198.372 156.137 196.734 156.428 195.452 157.006C193.364 157.948 192.203 159.615 191.799 162.255C191.351 165.175 192.066 168.095 193.815 170.477C195.563 172.859 198.134 174.418 201.054 174.866C203.974 175.314 206.895 174.598 209.277 172.85C211.659 171.102 213.218 168.531 213.666 165.61C214.071 162.971 213.464 161.032 211.754 159.509C210.097 158.032 207.375 156.967 203.883 156.432H203.883C202.603 156.234 201.399 156.137 200.29 156.137Z" fill="#B78E98"/>
</g>
<g id="Group_4">
<path id="Vector_11" d="M165.462 159.203H74.0244C70.9604 159.203 68.3106 161.338 67.6595 164.333L56.0709 217.635C55.9722 218.089 55.9224 218.553 55.9224 219.018V222.505C55.9224 226.103 58.8388 229.019 62.4359 229.019H177.05C180.648 229.019 183.564 226.103 183.564 222.505V219.018C183.564 218.553 183.514 218.089 183.415 217.635L171.827 164.333C171.176 161.338 168.526 159.203 165.462 159.203Z" fill="#91A2B5"/>
<path id="Vector_12" d="M69.5569 207.329L77.6314 170.192H161.855L169.929 207.329H69.5569Z" fill="white"/>
<path id="Vector_13" d="M166.725 189.983H155.339L154.225 182.782H164.021V177.554H148.667L147.658 169.85L142.474 170.53L143.395 177.554H96.0894L97.0102 170.53L91.8265 169.85L90.817 177.554H75.4624V182.782H85.2593L84.1449 189.983H72.759V195.211H88.507L86.9693 206.995L92.153 207.672L93.779 195.211H107.979L107.477 207.224L112.7 207.442L113.211 195.211H126.274L126.784 207.442L132.007 207.224L131.506 195.211H145.705L147.331 207.672L152.515 206.995L150.977 195.211H166.725V189.983ZM150.049 189.983H140.533L139.922 182.782H148.935L150.049 189.983ZM122.361 182.782H134.676L135.287 189.983H122.361V182.782ZM117.134 189.983H104.2L104.817 182.782H117.134V189.983ZM90.5488 182.782H99.5702L98.9527 189.983H89.4349L90.5488 182.782Z" fill="#E3E3E3"/>
<path id="Vector_14" d="M177.05 231.633H62.4358C57.403 231.633 53.3081 227.538 53.3081 222.505V219.018C53.3081 218.367 53.3783 217.715 53.5165 217.079L65.1045 163.777C66.0101 159.612 69.7614 156.588 74.0239 156.588H165.462C169.724 156.588 173.475 159.612 174.381 163.777L185.969 217.079C186.108 217.714 186.178 218.366 186.178 219.018V222.505C186.178 227.538 182.083 231.633 177.05 231.633ZM74.0243 161.816C72.2033 161.816 70.6005 163.108 70.2132 164.888L58.6252 218.189C58.5658 218.461 58.5359 218.74 58.5359 219.018V222.505C58.5359 224.655 60.2853 226.405 62.4358 226.405H177.05C179.201 226.405 180.95 224.655 180.95 222.505V219.018C180.95 218.739 180.92 218.461 180.861 218.19L169.273 164.887C168.886 163.108 167.283 161.816 165.462 161.816H74.0243Z" fill="#678490"/>
<path id="Vector_15" d="M172.867 219.972H66.619C65.1753 219.972 64.0054 218.802 64.0054 217.359C64.0054 215.915 65.1758 214.745 66.619 214.745H172.867C174.311 214.745 175.481 215.915 175.481 217.359C175.481 218.802 174.311 219.972 172.867 219.972Z" fill="#678490"/>
<path id="Vector_16" d="M169.929 209.943H69.5569C68.7662 209.943 68.0178 209.586 67.5218 208.97C67.0254 208.354 66.8346 207.547 67.0026 206.774L75.0766 169.636C75.3377 168.435 76.4013 167.577 77.631 167.577H161.855C163.084 167.577 164.148 168.435 164.409 169.636L172.484 206.774C172.652 207.547 172.461 208.354 171.964 208.97C171.468 209.586 170.72 209.943 169.929 209.943ZM72.8004 204.716H166.686L159.748 172.805H79.7378L72.8004 204.716Z" fill="#678490"/>
</g>
<g id="Group_5">
<path id="Vector_17" d="M114.499 161.539L113.618 156.928C112.589 151.548 107.857 147.807 102.567 147.847C99.116 145.106 94.3969 142.891 88.9778 141.73C76.6778 139.096 65.4367 142.891 63.87 150.207C62.3508 157.302 70.4904 165.103 82.2047 167.97C83.4752 173.896 89.2464 177.747 95.2303 176.604L104.58 174.817C106.038 177.721 108.135 179.895 111.077 179.181C116.071 177.97 116.089 169.862 114.499 161.539Z" fill="#D4AFB7"/>
<path id="Vector_18" d="M117.068 161.051C117.063 161.027 117.056 161.004 117.051 160.98L116.183 156.439C114.976 150.126 109.623 145.638 103.488 145.258C99.6926 142.445 94.7728 140.297 89.5256 139.175C83.1226 137.803 76.7434 138.012 71.563 139.762C65.9114 141.669 62.2716 145.185 61.3157 149.661C59.5402 157.944 67.5416 166.55 80.0851 170.105C81.9949 175.677 87.2792 179.419 93.1255 179.419C93.9807 179.419 94.8488 179.339 95.7192 179.173L103.261 177.732C104.028 178.899 104.922 179.913 105.965 180.639C107.194 181.496 108.556 181.932 109.973 181.932C110.539 181.932 111.115 181.862 111.694 181.721C119.059 179.934 118.681 169.494 117.068 161.051ZM66.4268 150.755C67.1767 147.246 71.0139 145.464 73.2341 144.715C77.5374 143.262 82.9342 143.11 88.4311 144.287C90.7671 144.786 93.0154 145.515 95.0856 146.427L89.6584 147.464C82.1876 148.892 77.2711 156.131 78.6988 163.602L78.8098 164.184C70.7391 161.145 65.3926 155.582 66.4268 150.755ZM110.461 176.641C109.886 176.78 109.45 176.696 108.954 176.351C106.482 174.631 104.673 167.922 104.178 163.709C104.012 162.275 102.715 161.245 101.28 161.414C99.8464 161.58 98.8189 162.877 98.9855 164.311C99.069 165.029 99.5654 168.919 100.94 172.852L94.7377 174.038C90.0979 174.926 85.6024 171.871 84.7159 167.232L83.8345 162.621C82.9479 157.981 86.0011 153.486 90.6404 152.599L101.035 150.613C103.279 150.184 105.556 150.656 107.448 151.943C109.34 153.23 110.619 155.175 111.048 157.421L111.929 162.032C111.933 162.053 111.94 162.074 111.945 162.095C113.511 170.335 112.93 176.042 110.461 176.641Z" fill="#B78E98"/>
</g>
<g id="Group_6">
<g id="Group_7">
<path id="Vector_19" d="M107.088 79.0248C108.46 87.358 105.882 95.4387 100.719 101.33C96.7159 105.911 91.1735 109.169 84.7036 110.235C82.2627 110.637 79.8331 110.7 77.4876 110.453C65.6001 109.229 55.5293 100.212 53.4937 87.8502C51.8188 77.6798 56.032 67.9014 63.6433 61.9845L63.6566 61.9821C67.1079 59.2839 71.2588 57.4007 75.8782 56.6404C79.2769 56.0808 82.6224 56.1767 85.8066 56.852C96.481 59.0571 105.212 67.6342 107.088 79.0248Z" fill="#93F6F8"/>
<path id="Vector_20" d="M183.005 66.5241C184.288 74.3191 182.111 81.8891 177.602 87.6589C173.565 92.8526 167.628 96.5802 160.62 97.7339C158.402 98.0994 156.205 98.1782 154.049 98.0206C141.881 97.059 131.482 87.9342 129.41 75.349C127.657 64.7063 132.361 54.4695 140.641 48.6849C143.866 46.4149 147.648 44.8221 151.795 44.1391C155.39 43.5468 158.945 43.6897 162.282 44.4747C172.703 46.8563 181.161 55.33 183.005 66.5241Z" fill="#93F6F8"/>
<path id="Vector_21" d="M177.602 87.6589C173.565 92.8526 167.628 96.5802 160.62 97.7339C158.402 98.0994 156.205 98.1782 154.049 98.0206C160.005 84.5854 156.026 77.6926 145.439 76.1871C135.087 74.7106 134.706 59.5426 140.641 48.6849C143.866 46.4149 147.648 44.8221 151.794 44.1391C155.39 43.5468 158.945 43.6897 162.282 44.4747C155.936 55.3727 156.1 71.1833 166.686 72.6888C175.285 73.9147 179.524 78.7026 177.602 87.6589Z" fill="#DDFCFC"/>
<path id="Vector_22" d="M100.719 101.33C96.7156 105.912 91.1731 109.17 84.7033 110.235C82.2624 110.637 79.8328 110.7 77.4873 110.453C83.3426 97.1421 79.3459 90.3063 68.8143 88.8051C58.6695 87.3618 58.1033 72.7904 63.643 61.9845L63.6562 61.9821C67.1076 59.2839 71.2585 57.4007 75.8779 56.6404C79.2766 56.0808 82.6221 56.1767 85.8063 56.852C79.2998 67.7628 79.391 83.788 90.0602 85.3063C98.9919 86.5854 103.215 91.686 100.719 101.33Z" fill="#DDFCFC"/>
<path id="Vector_23" d="M208.142 41.6465L206.071 40.161C203.835 38.5573 201.017 38.0025 198.339 38.6384C195.661 39.2744 193.393 41.0381 192.118 43.4757L183.708 59.5445C178.534 47.0566 165.269 39.2716 151.371 41.5606C136.591 43.9944 126.139 56.9854 126.446 71.5464C118.86 69.6513 112.437 72.3561 108.725 74.62C104.4 60.6461 90.2865 51.6204 75.4574 54.0609C61.5575 56.3494 51.4882 67.9783 50.5935 81.4667L37.4729 68.9403C35.4829 67.0405 32.771 66.1003 30.0287 66.3528C27.2888 66.6091 24.7971 68.0386 23.1929 70.2749L21.7074 72.3461C20.8659 73.5189 21.135 75.152 22.3077 75.9935C23.48 76.8345 25.1136 76.5664 25.9551 75.3927L27.4406 73.3219C28.1725 72.3015 29.2641 71.6746 30.5147 71.5578C31.7658 71.4406 32.9542 71.8544 33.8626 72.7216L51.0866 89.1658C52.5465 96.6395 56.7264 103.172 62.9419 107.63C68.0563 111.298 74.0587 113.216 80.23 113.216C81.8565 113.216 83.4944 113.083 85.1308 112.813C100.82 110.23 111.64 95.7501 109.881 80.1245C112.374 78.274 119.112 74.2251 127.106 77.2237C128.662 84.4653 132.795 90.7819 138.856 95.1288C143.97 98.7971 149.972 100.715 156.144 100.715C157.77 100.715 159.408 100.582 161.045 100.312C176.944 97.6946 187.833 82.8597 185.708 66.9954L196.749 45.8995C197.331 44.787 198.325 44.0143 199.547 43.7243C200.77 43.4353 202.004 43.6774 203.024 44.4092L205.095 45.8947C206.268 46.7357 207.901 46.4676 208.743 45.2939C209.584 44.1211 209.315 42.488 208.142 41.6465ZM100.238 97.742C96.417 103.07 90.7502 106.59 84.2813 107.655C77.8109 108.72 71.3154 107.202 65.9884 103.382C60.6614 99.5607 57.1403 93.8939 56.0753 87.4249C53.8764 74.0709 62.9514 61.4173 76.3055 59.2184C77.65 58.9973 78.9856 58.8905 80.3064 58.8905C92.0995 58.8905 102.534 67.4401 104.512 79.4487C105.577 85.9176 104.059 92.415 100.238 97.742ZM160.196 95.1544C153.725 96.219 147.23 94.7017 141.903 90.8811C136.577 87.0614 133.057 81.3969 131.991 74.9309C131.99 74.9275 131.989 74.9242 131.989 74.9209C129.793 61.5687 138.867 48.917 152.22 46.7182C153.565 46.4965 154.901 46.3898 156.221 46.3898C168.015 46.3898 178.448 54.9394 180.426 66.9484C182.625 80.3025 173.549 92.9556 160.196 95.1544Z" fill="#605C5D"/>
</g>
<g id="Group_8">
<path id="Vector_24" d="M77.4777 82.901C76.5688 77.4719 79.6476 72.4325 84.3538 71.6452C89.06 70.8573 93.612 74.6195 94.5204 80.0486C95.4293 85.4777 92.3505 90.5171 87.6443 91.3044C82.9385 92.0918 78.3865 88.3296 77.4777 82.901Z" fill="#00D4D7"/>
<path id="Vector_25" d="M141.866 72.1236C140.957 66.6945 144.036 61.6551 148.742 60.8673C153.448 60.0794 158 63.8416 158.909 69.2707C159.818 74.6993 156.739 79.7387 152.033 80.5265C147.326 81.3144 142.774 77.5522 141.866 72.1236Z" fill="#00D4D7"/>
</g>
</g>
</g>
</g>
</g>
<defs>
<clipPath id="clip0_0_1">
<rect width="243" height="243" fill="white"/>
</clipPath>
</defs>
</svg>
