<?xml version="1.0" encoding="iso-8859-1"?>
<!-- Generator: Adobe Illustrator 26.5.1, SVG Export Plug-In . SVG Version: 6.00 Build 0)  -->
<svg xmlns="http://www.w3.org/2000/svg" xmlns:xlink="http://www.w3.org/1999/xlink" version="1.1" id="Capa_1" x="0px" y="0px" viewBox="0 0 512 512" style="enable-background:new 0 0 512 512;" xml:space="preserve">
<g>
	<ellipse style="fill:#D4AFB7;" cx="259.766" cy="377.784" rx="93.979" ry="76.15"/>
	<g>
		<g>
			<path style="fill:#D4AFB7;" d="M453.771,203.336c-9.37-1.382-18.555-0.574-27.046,2.028     c0.85-57.891-38.575-110.291-95.978-125.074c-26.416-6.803-53.239-10.851-80.469-12.143     c-60.366-2.865-113.955,35.755-130.505,92.019c-7.41-4.994-16.024-8.452-25.455-9.843c-33.719-4.973-65.086,18.33-70.059,52.049     c-4.973,33.719,18.33,65.086,52.05,70.059c17.177,2.533,33.734-2.283,46.512-12.064c9.724,20.759,27.306,37.386,49.508,45.489     c51.756,18.89,105.121,26.879,160.093,23.965c24.287-1.287,46.412-12.209,62.12-29.595c9.405,13.178,23.937,22.67,41.219,25.219     c33.719,4.973,65.086-18.331,70.059-52.05C510.794,239.675,487.49,208.309,453.771,203.336z"/>
			<path style="fill:#B78E98;" d="M310.728,335.909c-47.899,0.001-94.986-8.34-140.289-24.875     c-21.288-7.77-38.716-22.756-49.664-42.551c-13.493,8.422-29.333,11.75-45.271,9.401c-17.765-2.621-33.446-12.001-44.155-26.417     c-10.709-14.414-15.164-32.136-12.543-49.901c2.62-17.765,12.001-33.446,26.416-44.155     c14.414-10.709,32.137-15.164,49.901-12.543c7.626,1.125,14.844,3.478,21.54,7.015c9.119-25.75,26.233-48.425,48.741-64.397     c24.605-17.461,54.842-26.283,85.135-24.847c27.476,1.304,54.924,5.446,81.582,12.311c28.845,7.428,54.714,24.605,72.842,48.367     c16.563,21.71,26.085,48.109,27.181,75.024c7.366-1.417,14.882-1.572,22.431-0.459c36.672,5.408,62.107,39.644,56.699,76.317     c-5.409,36.673-39.649,62.102-76.317,56.7c-16.052-2.368-30.33-10.212-40.834-22.307c-16.581,16.066-38.151,25.501-61.409,26.734     C325.372,335.715,318.037,335.909,310.728,335.909z M122.821,254.853c0.437,0,0.876,0.052,1.309,0.158     c1.621,0.396,2.976,1.506,3.684,3.017c9.369,19.999,25.85,35.145,46.406,42.648c50.81,18.546,103.934,26.496,157.911,23.64     c22.498-1.192,43.21-11.061,58.321-27.786c1.119-1.238,2.735-1.9,4.408-1.808c1.667,0.096,3.201,0.943,4.171,2.301     c8.966,12.563,22.296,20.72,37.536,22.968c2.765,0.408,5.519,0.606,8.236,0.606c27.395,0.003,51.451-20.113,55.565-48.006     c4.521-30.658-16.742-59.278-47.4-63.799c-0.001-0.001-0.001-0.001-0.001-0.001c-8.333-1.227-16.619-0.607-24.626,1.845     c-1.685,0.516-3.516,0.195-4.926-0.863c-1.409-1.058-2.228-2.727-2.202-4.489c0.395-26.883-8.49-53.617-25.015-75.277     c-16.634-21.803-40.366-37.563-66.826-44.377c-25.93-6.678-52.629-10.707-79.355-11.975     c-27.845-1.318-55.628,6.785-78.231,22.825c-22.438,15.923-39.031,39.093-46.723,65.243c-0.496,1.686-1.766,3.035-3.42,3.631     c-1.654,0.596-3.492,0.368-4.95-0.615c-6.985-4.707-14.784-7.722-23.178-8.961c-14.849-2.189-29.666,1.534-41.717,10.486     c-12.05,8.953-19.893,22.062-22.083,36.913c-2.19,14.851,1.534,29.667,10.486,41.717c8.953,12.05,22.062,19.893,36.913,22.083     c15.142,2.237,30.184-1.669,42.357-10.987C120.442,255.245,121.622,254.853,122.821,254.853z"/>
			<path style="fill:#FAEAC0;" d="M316.692,279.949c-39.212,1.532-77.357-4.172-114.434-17.112     c-22.753-7.941-38.928-27.388-41.548-49.781c-1.37-11.715-1.321-23.22,0.149-34.516c5.756-44.23,47.348-75.77,95.278-73.157     c19.443,1.06,38.616,3.948,57.519,8.666c44.951,11.217,74.891,52.22,68.609,94.812c-1.702,11.541-4.894,22.863-9.576,33.965     C363.553,264.489,341.816,278.968,316.692,279.949z"/>
			
				<ellipse transform="matrix(0.1459 -0.9893 0.9893 0.1459 71.941 413.6813)" style="fill:#DDFCFC;" cx="275.554" cy="165.176" rx="65.779" ry="97.669"/>
			<g>
				<path style="fill:#00D4D7;" d="M359.277,221.014c-0.268,0-0.538-0.02-0.811-0.06c-3.013-0.444-5.094-3.247-4.65-6.259      c0.913-6.191-3.382-11.972-9.573-12.885c-6.194-0.914-11.971,3.382-12.885,9.573c-0.444,3.012-3.242,5.1-6.259,4.649      c-3.012-0.444-5.094-3.246-4.649-6.259c1.8-12.206,13.198-20.671,25.401-18.872c12.206,1.801,20.672,13.196,18.872,25.402      C364.321,219.044,361.967,221.014,359.277,221.014z"/>
				<path style="fill:#00D4D7;" d="M214.246,199.624c-0.268,0.001-0.538-0.019-0.811-0.06c-3.013-0.444-5.094-3.246-4.65-6.258      c0.442-2.999-0.31-5.991-2.118-8.425c-1.808-2.434-4.455-4.017-7.454-4.46c-6.191-0.909-11.971,3.382-12.885,9.573      c-0.444,3.013-3.244,5.095-6.259,4.649c-3.012-0.444-5.094-3.246-4.649-6.259c1.8-12.206,13.191-20.679,25.402-18.871      c5.913,0.872,11.132,3.994,14.696,8.792c3.565,4.798,5.047,10.696,4.175,16.609C219.29,197.654,216.935,199.624,214.246,199.624      z"/>
			</g>
			
				<ellipse transform="matrix(0.2355 -0.9719 0.9719 0.2355 83.2355 635.6735)" style="fill:#B78E98;" cx="445.657" cy="264.932" rx="22.442" ry="22.442"/>
		</g>
		<path style="fill:#93F6F8;" d="M309.068,236.609c-23.775-3.162-9.568-41.949-36.983-47.915    c-27.97-2.202-25.565,39.035-49.24,35.199L309.068,236.609z"/>
		
			<ellipse transform="matrix(0.1459 -0.9893 0.9893 0.1459 -46.6977 489.0168)" style="fill:#777677;" cx="259.865" cy="271.553" rx="23.3" ry="42.822"/>
		<path style="fill:#605C5D;" d="M267.694,300.958c-3.878,0-7.908-0.292-12.033-0.9c-26.814-3.955-45.972-19.573-43.614-35.558    c1.216-8.247,7.739-14.939,18.366-18.841c9.492-3.486,21.445-4.415,33.656-2.612c26.814,3.955,45.972,19.575,43.615,35.558    C305.689,292.13,289.019,300.958,267.694,300.958z M251.964,253.169c-6.534,0-12.625,0.959-17.75,2.842    c-6.564,2.41-10.667,6.091-11.258,10.099c-1.227,8.323,12.563,19.831,34.314,23.039c21.753,3.21,38.278-3.829,39.506-12.153    c1.227-8.323-12.564-19.832-34.315-23.04C258.892,253.43,255.367,253.169,251.964,253.169z"/>
		<path style="fill:#FFBF8C;" d="M319.648,349.641l-29.313-4.323c-29.662-4.375-50.161-31.967-45.786-61.628l0.774-5.25    c1.078-7.312,7.88-12.365,15.191-11.286h0c7.311,1.078,12.365,7.88,11.286,15.191l-0.774,5.25    c-2.218,15.039,8.175,29.028,23.214,31.246l29.312,4.323c22.339,3.295,43.119-12.144,46.413-34.483L405.75,46.047    c0.859-5.828,6.281-9.855,12.108-8.996l5.375,0.793c5.828,0.86,9.855,6.281,8.996,12.108l-35.785,242.634    C390.992,329.548,356.61,355.093,319.648,349.641z"/>
		<path style="fill:#FF9D6F;" d="M329.673,355.893c-3.593,0-7.211-0.264-10.83-0.798l-29.313-4.323    c-32.622-4.811-55.247-35.266-50.436-67.888l0.774-5.25c1.521-10.306,11.141-17.454,21.45-15.937    c10.307,1.521,17.456,11.144,15.936,21.451l-0.774,5.25c-1.77,12.007,6.558,23.217,18.565,24.988l29.311,4.323    c19.294,2.84,37.309-10.538,40.156-29.833l35.785-242.634c1.301-8.826,9.546-14.945,18.367-13.646l5.375,0.793    c8.825,1.301,14.947,9.541,13.645,18.367L401.898,293.39c-2.851,19.333-13.061,36.399-28.748,48.053    C360.401,350.917,345.27,355.892,329.673,355.893z M258.557,272.522c-3.835,0-7.204,2.817-7.781,6.722l-0.774,5.25    c-3.923,26.607,14.53,51.446,41.137,55.37l29.313,4.323l0,0c16.422,2.423,32.8-1.695,46.122-11.593    c13.323-9.899,21.994-24.392,24.416-40.812l35.785-242.633c0.415-2.811-1.535-5.436-4.346-5.85l-5.375-0.793    c-2.814-0.413-5.435,1.535-5.85,4.346l-35.785,242.635c-3.732,25.31-27.363,42.865-52.672,39.133l-29.312-4.323    c-18.022-2.659-30.522-19.483-27.865-37.506l0.775-5.25c0.633-4.292-2.344-8.299-6.637-8.932    C259.322,272.55,258.937,272.522,258.557,272.522z"/>
		<path style="fill:#6EE3CE;" d="M382.289,102.767c-16.921-17.037-40.483-22.518-63.452-25.906c-4.7-0.693-9.589-1.324-14.589-1.971    c-4.911-0.634-9.955-1.288-15.074-2.043c-5.119-0.755-10.137-1.585-15.022-2.396c-4.996-0.827-9.837-1.631-14.559-2.327    c-22.947-3.384-47.089-4.938-68.208,6.488c-22.317,12.062-35.76,35.645-41.133,72.073c-5.376,36.451,0.687,62.911,18.571,80.901    c16.921,17.037,40.486,22.496,63.434,25.881c4.722,0.696,9.586,1.346,14.607,1.996c4.911,0.634,9.955,1.288,15.074,2.043    c5.119,0.755,10.137,1.585,15.022,2.396c4.974,0.824,9.84,1.609,14.562,2.306c22.947,3.384,47.086,4.96,68.204-6.466    c22.295-12.065,35.76-35.645,41.136-72.095C406.236,147.218,400.152,120.755,382.289,102.767z M265.958,230.257    c-53.374-7.872-97.93-5.38-87.021-79.341c10.905-73.939,52.844-58.691,106.218-50.819c53.353,7.869,97.93,5.38,87.025,79.319    C361.271,253.377,319.311,238.125,265.958,230.257z"/>
		<path style="fill:#4ECAB3;" d="M320.188,270.212c-9.866,0-19.781-1.111-29.48-2.541c-4.894-0.722-10.071-1.575-14.638-2.328    l-0.353-0.058c-4.735-0.78-9.63-1.586-14.586-2.316c-5.015-0.74-9.993-1.388-14.806-2.016l-0.182-0.024    c-4.841-0.631-9.846-1.283-14.687-1.998c-23.894-3.524-48.494-9.29-66.539-27.46c-19.185-19.319-25.768-47.312-20.124-85.581    c5.644-38.272,20.029-63.174,43.975-76.131c22.521-12.184,47.738-10.604,71.636-7.079c4.833,0.713,9.816,1.534,14.636,2.327    l0.276,0.046c4.76,0.784,9.681,1.594,14.663,2.329c4.97,0.733,9.902,1.376,14.671,1.998l0.318,0.042    c4.835,0.63,9.835,1.282,14.684,1.997c23.896,3.524,48.495,9.29,66.541,27.461c19.187,19.319,25.77,47.313,20.125,85.581    c-5.644,38.272-20.028,63.174-43.973,76.13C348.962,267.831,334.629,270.212,320.188,270.212z M231.033,71.18    c-12.905,0-25.539,2.066-37.019,8.278c-20.678,11.189-33.211,33.446-38.314,68.042c-5.102,34.593,0.472,59.52,17.04,76.203    c15.773,15.882,38.315,21.075,60.325,24.321c4.75,0.702,9.708,1.348,14.503,1.973l0.182,0.023    c4.858,0.633,9.882,1.288,14.99,2.041c5.046,0.745,9.988,1.558,14.768,2.344l0.354,0.059c4.525,0.746,9.653,1.591,14.455,2.298    c0,0,0,0,0,0c22.011,3.248,45.093,4.783,64.78-5.868c20.677-11.188,33.209-33.445,38.312-68.042    c5.102-34.593-0.472-59.52-17.041-76.203c-15.774-15.883-38.317-21.076-60.326-24.322c-4.757-0.701-9.711-1.347-14.502-1.971    l-0.318-0.042c-4.814-0.628-9.793-1.277-14.854-2.024c-5.073-0.748-10.041-1.566-14.845-2.357l-0.277-0.046    c-4.774-0.786-9.711-1.6-14.453-2.299C249.619,72.236,240.256,71.18,231.033,71.18z"/>
		<path style="fill:#65E1E9;" d="M309.075,242.123c-0.242,0-0.487-0.016-0.734-0.049c-15.203-2.022-18.683-15.321-21.48-26.007    c-3.158-12.067-5.8-19.606-15.583-21.903c-10.035-0.617-14.736,5.83-21.243,16.472c-5.763,9.424-12.933,21.151-28.073,18.699    c-3.005-0.487-5.047-3.318-4.56-6.324c0.487-3.005,3.317-5.044,6.324-4.56c7.122,1.153,10.456-3.025,16.903-13.567    c6.288-10.285,14.112-23.091,31.889-21.686c0.249,0.02,0.496,0.056,0.74,0.109c17.421,3.791,21.219,18.306,24.271,29.968    c3.128,11.954,5.113,16.917,12.266,17.868c3.018,0.401,5.14,3.174,4.738,6.192C314.165,240.108,311.797,242.123,309.075,242.123z"/>
		<path style="fill:#4ECAB3;" d="M319.858,242.658c-11.948,0.001-25.129-2.171-39.259-4.499c-5.012-0.826-10.194-1.679-15.446-2.454    c-5.253-0.774-10.461-1.453-15.498-2.11c-28.867-3.762-53.798-7.011-67.597-25.261c-9.666-12.785-12.473-31.826-8.582-58.212    c3.892-26.387,12.076-43.808,25.022-53.258c18.48-13.49,43.288-9.403,72.011-4.671c5.012,0.826,10.194,1.679,15.447,2.454    c5.252,0.774,10.461,1.453,15.497,2.11c28.868,3.762,53.798,7.011,67.597,25.262c9.667,12.784,12.474,31.826,8.582,58.213    c-3.892,26.386-12.076,43.806-25.022,53.256C343.222,240.341,332.198,242.658,319.858,242.658z M231.439,98.755    c-10.34,0-19.317,1.816-26.44,7.015c-10.434,7.616-17.177,22.65-20.615,45.96c-3.437,23.31-1.322,39.65,6.469,49.954    c11.012,14.564,33.819,17.536,60.227,20.977c5.082,0.662,10.337,1.347,15.681,2.136c5.344,0.788,10.573,1.649,15.63,2.482    c26.277,4.329,48.971,8.067,63.719-2.698c10.434-7.616,17.177-22.649,20.615-45.96c3.438-23.31,1.322-39.65-6.469-49.954    c-11.012-14.564-33.819-17.535-60.227-20.977c-5.082-0.662-10.337-1.347-15.682-2.135c-5.344-0.788-10.573-1.649-15.63-2.482    C255.133,100.835,242.505,98.755,231.439,98.755z"/>
		<path style="fill:#FFFFFF;" d="M350.121,181.686c-0.268,0-0.538-0.019-0.811-0.06c-3.013-0.444-5.094-3.246-4.65-6.258    c3.481-23.604-0.398-31.557-3.02-34.197c-5.087-5.123-18.462-7.685-30.874-9.516c-3.013-0.444-5.094-3.246-4.65-6.258    c0.444-3.012,3.249-5.098,6.258-4.65c17.245,2.543,30.152,5.668,37.089,12.654c7.342,7.392,9.338,21.646,6.104,43.575    C355.164,179.716,352.81,181.686,350.121,181.686z"/>
	</g>
	<path style="fill:#D4AFB7;" d="M217.776,365.348l-54.099,7.397c0,0-78.868-115.406-46.571-145.477   C149.403,197.196,217.776,365.348,217.776,365.348z"/>
	<path style="fill:#B78E98;" d="M163.686,378.257c-1.76,0-3.489-0.84-4.557-2.402c-0.199-0.292-20.136-29.574-35.817-62.182   c-21.978-45.704-25.329-76.132-9.962-90.437c4.698-4.374,10.434-5.965,16.587-4.606c16.273,3.596,36.296,28.579,61.215,76.378   c17.835,34.212,31.591,67.931,31.728,68.268c1.147,2.82-0.211,6.037-3.031,7.183c-2.821,1.149-6.037-0.21-7.184-3.031   c-20.596-50.646-61.914-132.907-85.108-138.031c-2.595-0.575-4.659,0.016-6.694,1.91c-11.092,10.326-6.71,37.846,12.339,77.489   c15.314,31.871,34.835,60.552,35.03,60.838c1.717,2.515,1.072,5.945-1.441,7.663C165.84,377.946,164.757,378.257,163.686,378.257z"/>
	<g>
		<path style="fill:#FFFF9D;" d="M145.233,193.118c-14.323-15.747-46.619-19.131-76.681,5.775    c-29.424,23.356-56.614,75.003-45.961,133.497c8.022,58.912,49.899,99.57,85.118,112.642c36.309,14.347,65.958,1.108,74.69-18.307    c18.422-41.456-26.556-60.706-34.729-114.234C138.831,259.068,175.609,226.811,145.233,193.118z"/>
		<path style="fill:#FFE5A7;" d="M137.522,456.607c-8.986,0-19.674-1.648-31.783-6.426c-36.853-13.704-80.262-56.118-88.593-116.925    C6.198,272.865,34.299,219.074,65.079,194.612c18.791-15.551,36.253-19.114,47.595-19.363c14.817-0.316,28.158,4.836,36.638,14.16    l0.016,0.018c19.289,21.395,14.102,42.815,8.611,65.493c-3.956,16.337-8.44,34.853-4.83,56.671    c3.349,21.929,13.359,38.14,22.19,52.443c12.258,19.853,23.836,38.605,12.138,64.93c-5.179,11.518-16.273,20.568-30.446,24.853    C151.928,455.348,145.374,456.607,137.522,456.607z M114.179,186.273c-12.871,0-27.871,5.07-42.109,16.867l-0.089,0.072    c-28.325,22.483-54.164,72.188-43.965,128.19l0.039,0.244c7.68,56.401,47.67,95.634,81.574,108.217l0.108,0.041    c25.332,10.009,57.557,6.971,67.636-15.441c9.324-20.984,0.608-35.1-11.455-54.636c-9.384-15.198-20.02-32.423-23.697-56.504    c-3.965-23.964,0.799-43.639,5.002-60.998c5.404-22.313,9.307-38.436-6.075-55.505    C135.084,190.158,125.448,186.273,114.179,186.273z"/>
		<path style="fill:#FFE5A7;" d="M148.274,419.345c-0.778,0-1.567-0.165-2.319-0.514c-0.812-0.378-20.109-9.447-40.291-27.757    c-26.963-24.462-42.439-53.838-44.756-84.953c-3.153-42.361,16.975-72.901,34.415-91.062c2.109-2.197,5.599-2.267,7.795-0.158    c2.196,2.109,2.267,5.599,0.158,7.795c-15.886,16.541-34.223,44.301-31.372,82.606c2.125,28.551,15.896,54.587,40.93,77.389    c18.957,17.266,37.585,26.054,37.771,26.141c2.757,1.287,3.953,4.566,2.668,7.324C152.34,418.164,150.351,419.345,148.274,419.345    z"/>
		<path style="fill:#6EE3CE;" d="M74.379,367.816c-20.916,0-37.932-17.016-37.932-37.931V196.247h11.026v133.638    c0,14.835,12.069,26.905,26.905,26.905c8.485,0,15.388-6.903,15.388-15.387h11.026C100.793,355.967,88.944,367.816,74.379,367.816    z"/>
		<ellipse style="fill:#777677;" cx="95.28" cy="333.216" rx="24.647" ry="15.429"/>
		<path style="fill:#605C5D;" d="M95.28,354.158c-16.912,0-30.16-9.199-30.16-20.942s13.248-20.942,30.16-20.942    c16.912,0,30.16,9.199,30.16,20.942S112.193,354.158,95.28,354.158z M95.28,323.301c-10.951,0-19.134,5.235-19.134,9.915    c0,4.68,8.183,9.915,19.134,9.915c10.951,0,19.134-5.235,19.134-9.915C114.414,328.536,106.232,323.301,95.28,323.301z"/>
		<path style="fill:#DDFCFC;" d="M107.296,327.017c-1.911,0-3.886-0.033-5.91-0.067c-1.988-0.033-4.028-0.068-6.107-0.068    c-2.079,0-4.119,0.035-6.107,0.068c-2.024,0.034-3.998,0.067-5.91,0.067c-9.31,0-18.988-0.795-26.697-6.564    c-8.15-6.099-12.113-16.248-12.113-31.025c0-14.778,3.962-24.927,12.113-31.026c7.709-5.769,17.387-6.564,26.698-6.564    c1.911,0,3.885,0.033,5.909,0.067c1.988,0.033,4.028,0.068,6.107,0.068c2.079,0,4.119-0.035,6.107-0.068    c2.024-0.034,3.997-0.067,5.91-0.067c9.31,0,18.988,0.795,26.698,6.564c8.151,6.099,12.113,16.248,12.113,31.025    c0,14.778-3.962,24.927-12.112,31.025C126.285,326.222,116.607,327.017,107.296,327.017z"/>
		<path style="fill:#FFFFFF;" d="M127.778,285.707c-2.368,0.001-4.556-1.537-5.276-3.921c-2.324-7.7-12.716-5.216-13.894-4.907    c-2.938,0.772-5.954-0.975-6.737-3.907c-0.783-2.932,0.938-5.942,3.866-6.739c0.528-0.145,5.324-1.388,10.861-0.776    c8.334,0.922,14.179,5.59,16.459,13.142c0.88,2.915-0.769,5.992-3.684,6.872C128.843,285.631,128.306,285.707,127.778,285.707z"/>
		
			<ellipse transform="matrix(1 -0.0035 0.0035 1 -1.0457 0.4502)" style="fill:#00D4D7;" cx="127.78" cy="298.266" rx="9.067" ry="8.917"/>
		
			<ellipse transform="matrix(1 -0.0036 0.0036 1 -1.0719 0.2357)" style="fill:#00D4D7;" cx="65.074" cy="298.487" rx="9.067" ry="8.917"/>
		<path style="fill:#605C5D;" d="M134.486,222.211c-7.273,0.226-14.159-2.687-19.102-8.138c-4.571-5.042-6.888-11.824-6.357-18.608    c0.531-6.783,3.876-13.123,9.176-17.391c0,0,0.001,0,0.001,0l25.678-20.676c6.182-4.979,14.906-5.573,21.707-1.472    c4.342,2.617,7.405,6.769,8.624,11.691s0.448,10.025-2.17,14.367l-17.023,28.232c-4.091,6.786-10.962,11.118-18.848,11.886    C135.608,222.157,135.046,222.194,134.486,222.211z"/>
		<path style="fill:#93F6F8;" d="M109.403,323.474c0,1.204-0.089,2.386-0.29,3.524H81.434c-0.201-1.138-0.29-2.32-0.29-3.524    c0-9.858,6.334-17.843,14.14-17.843S109.403,313.617,109.403,323.474z"/>
		<path style="fill:#65E1E9;" d="M109.119,332.512c-0.318,0-0.64-0.027-0.964-0.085c-2.998-0.529-5.001-3.388-4.472-6.386    c0.137-0.775,0.206-1.639,0.206-2.567c0-6.683-3.941-12.329-8.605-12.329c-4.676,0-8.627,5.646-8.627,12.329    c0,0.928,0.07,1.791,0.206,2.567c0.529,2.998-1.473,5.858-4.472,6.386c-3.003,0.531-5.859-1.472-6.387-4.472    c-0.248-1.405-0.373-2.912-0.373-4.481c0-12.878,8.816-23.356,19.653-23.356c10.825,0,19.631,10.477,19.631,23.356    c0,1.569-0.126,3.077-0.373,4.481C114.071,330.631,111.744,332.512,109.119,332.512z"/>
		<path style="fill:#FF9D6F;" d="M107.297,332.53c-1.942,0-3.947-0.032-6.004-0.068l-0.175-0.003c-3.805-0.062-7.873-0.062-11.678,0    l-0.174,0.003c-2.055,0.035-4.06,0.068-6.003,0.068c-10.263,0-21.001-0.928-30.001-7.664    c-9.637-7.212-14.322-18.803-14.322-35.438c0-16.635,4.685-28.228,14.323-35.439c9-6.735,19.738-7.663,30.001-7.663    c1.942,0,3.947,0.032,6.003,0.068c3.939,0.067,8.105,0.067,12.007,0c2.075-0.035,4.079-0.068,6.022-0.068    c10.263,0,21,0.928,30,7.663c9.639,7.213,14.324,18.805,14.324,35.439c0,16.635-4.685,28.228-14.323,35.439    C128.298,331.602,117.56,332.53,107.297,332.53z M95.28,321.368c2.049,0,4.061,0.033,6.024,0.067l0.176,0.003    c1.993,0.033,3.936,0.066,5.818,0.066c8.358,0,16.977-0.662,23.395-5.464c6.663-4.987,9.902-13.691,9.902-26.611    c0-12.92-3.24-21.624-9.904-26.611c-6.418-4.802-15.037-5.464-23.394-5.464c-1.882,0-3.825,0.032-5.816,0.066    c-4.066,0.069-8.355,0.068-12.38,0.001c-2.012-0.034-3.955-0.067-5.836-0.067c-8.358,0-16.978,0.662-23.396,5.464    c-6.663,4.987-9.902,13.691-9.902,26.611s3.239,21.624,9.902,26.61c6.419,4.803,15.037,5.465,23.395,5.465    c1.882,0,3.825-0.032,5.817-0.066l0.175-0.003C91.218,321.402,93.23,321.368,95.28,321.368z"/>
		<path style="fill:#605C5D;" d="M42.947,294.591c-15.497,0-30.198-5.125-30.838-5.351c-2.871-1.014-4.377-4.163-3.363-7.034    c1.014-2.871,4.163-4.377,7.034-3.364c0.139,0.05,14.527,5.035,28.543,4.707c3.032-0.079,5.571,2.334,5.644,5.379    c0.073,3.043-2.335,5.571-5.379,5.643C44.041,294.586,43.492,294.591,42.947,294.591z"/>
	</g>
	<path style="fill:#D4AFB7;" d="M351.556,397.856l-46.752-32.508c0,0,68.363-168.152,100.66-138.08   C437.772,257.34,351.556,397.856,351.556,397.856z"/>
	<path style="fill:#B78E98;" d="M351.547,403.366c-0.983,0-1.978-0.263-2.878-0.815c-2.596-1.592-3.409-4.987-1.816-7.582   c0.214-0.349,21.613-35.35,38.781-73.48c29.025-64.467,22.531-84.174,16.077-90.183c-2.035-1.893-4.098-2.484-6.694-1.91   c-23.194,5.124-64.512,87.385-85.108,138.031c-1.147,2.821-4.362,4.18-7.184,3.031c-2.82-1.146-4.177-4.363-3.031-7.183   c0.137-0.337,13.892-34.056,31.728-68.268c24.919-47.799,44.942-72.782,61.215-76.378c6.15-1.361,11.889,0.233,16.587,4.606   c15.532,14.459,11.091,48.107-13.575,102.865c-17.459,38.759-39.18,74.28-39.398,74.633   C355.211,402.431,353.401,403.366,351.547,403.366z"/>
	<path style="fill:#93F6F8;" d="M5.514,392.064c0.553,0.369,1.127,0.737,1.721,1.106c9.075,5.51,19.133,8.685,29.355,9.546   c14.38,1.25,29.068-2.008,41.789-9.71c1.926-1.168,3.687-2.356,5.285-3.482c7.026-5.162,16.654-5.388,23.967-0.635   c1.905,1.25,4.117,2.54,6.658,3.851c18.866,9.648,41.113,9.812,60.102,0.43c4.507-2.233,8.276-4.589,11.369-6.842   c7.047-5.142,16.634-5.367,23.967-0.594c0.533,0.328,1.127,0.697,1.741,1.065c21.734,13.233,49.348,13.008,71.123-0.164   c0.594-0.369,1.209-0.737,1.741-1.065c7.333-4.793,16.92-4.548,23.967,0.594c3.093,2.253,6.862,4.609,11.369,6.842   c18.989,9.382,41.236,9.218,60.102-0.43c2.54-1.311,4.753-2.602,6.658-3.851c7.313-4.753,16.941-4.527,23.967,0.635   c1.598,1.127,3.359,2.315,5.285,3.482c12.537,7.579,27.02,10.877,41.195,9.771c10.427-0.799,20.71-3.994,29.949-9.607   c0.594-0.369,1.147-0.737,1.721-1.106c0,0,38.156,88.678-231.049,88.678S5.514,392.064,5.514,392.064z"/>
	<path style="fill:#65E1E9;" d="M42.479,408.484c-2.124,0-4.248-0.091-6.367-0.275c-11.184-0.942-22.164-4.513-31.739-10.326   c-0.695-0.432-1.318-0.831-1.919-1.232c-2.533-1.691-3.216-5.114-1.526-7.646c1.69-2.533,5.115-3.216,7.646-1.526   c0.505,0.337,1.029,0.673,1.571,1.01c8.076,4.903,17.397,7.934,26.907,8.735c13.382,1.157,27.039-2.011,38.47-8.933   c1.562-0.947,3.128-1.977,4.924-3.243c8.836-6.46,20.96-6.78,30.189-0.78c1.828,1.199,3.901,2.397,6.181,3.574   c17.197,8.796,37.813,8.944,55.132,0.388c3.814-1.89,7.371-4.029,10.566-6.356c8.827-6.442,20.939-6.761,30.158-0.798l0.347,0.213   c0.406,0.251,0.84,0.518,1.286,0.785c19.742,12.022,45.414,11.952,65.432-0.155c0.3-0.186,0.658-0.404,1.004-0.615l0.646-0.395   c9.202-5.97,21.311-5.652,30.161,0.803c3.19,2.324,6.746,4.463,10.566,6.355c17.312,8.554,37.928,8.404,55.145-0.398   c2.256-1.164,4.329-2.363,6.145-3.553c9.248-6.009,21.371-5.693,30.208,0.77c1.767,1.244,3.38,2.306,4.926,3.244   c11.284,6.823,24.753,10.018,37.908,8.989c9.729-0.745,19.241-3.796,27.514-8.823c0.324-0.202,0.672-0.429,1.02-0.655l0.581-0.376   c2.561-1.649,5.972-0.907,7.619,1.653c1.648,2.561,0.907,5.972-1.654,7.62l-0.531,0.344c-0.417,0.271-0.833,0.541-1.27,0.812   c-9.789,5.948-20.989,9.541-32.431,10.418c-15.424,1.199-31.223-2.543-44.469-10.551c-1.784-1.083-3.617-2.29-5.61-3.694   c-0.029-0.021-0.059-0.042-0.088-0.064c-5.164-3.793-12.278-3.978-17.698-0.455c-2.115,1.387-4.522,2.78-7.134,4.128   c-20.324,10.393-44.643,10.567-65.072,0.473c-4.383-2.17-8.477-4.635-12.173-7.328c-5.195-3.79-12.308-3.965-17.704-0.436   c-0.042,0.027-0.083,0.054-0.126,0.08l-1.727,1.056c-23.546,14.243-53.709,14.304-76.895,0.187   c-0.453-0.271-0.924-0.561-1.363-0.832l-0.396-0.243c-0.041-0.025-0.082-0.052-0.123-0.078c-5.414-3.524-12.531-3.351-17.709,0.427   c-3.702,2.696-7.795,5.161-12.172,7.329c-20.436,10.094-44.756,9.921-65.06-0.463c-2.638-1.361-5.045-2.754-7.172-4.15   c-5.401-3.511-12.513-3.327-17.678,0.469c-0.029,0.021-0.058,0.042-0.087,0.062c-1.998,1.41-3.831,2.617-5.605,3.693   C69.629,404.748,56.074,408.484,42.479,408.484z"/>
	<path style="fill:#93F6F8;" d="M103.627,129.357c0,0-13.245-28.372-38.024-27.17c-24.779,1.201-23.578,25.981-11.093,30.519   C66.995,137.244,77.964,120.029,103.627,129.357z"/>
	<path style="fill:#93F6F8;" d="M107.783,117.817c0,0,16.491-31.636-1.762-53.22s-39.836-3.332-35.293,11.106   C75.272,90.141,98.443,88.139,107.783,117.817z"/>
	<path style="fill:#93F6F8;" d="M445.657,183.014c0,0,1.662-35.637,28.294-45.11c26.632-9.472,36.105,17.16,24.915,27.353   C487.677,175.45,468.658,162.063,445.657,183.014z"/>
</g>
<g>
</g>
<g>
</g>
<g>
</g>
<g>
</g>
<g>
</g>
<g>
</g>
<g>
</g>
<g>
</g>
<g>
</g>
<g>
</g>
<g>
</g>
<g>
</g>
<g>
</g>
<g>
</g>
<g>
</g>
</svg>
